<svg width="473" height="175" viewBox="0 0 473 175" fill="none" xmlns="http://www.w3.org/2000/svg">
<path d="M211.348 1.00342H221.767V23.0772H244.999V1.00342H255.418V56.2651H244.999V32.9564H221.767V56.2651H211.348V1.00342Z" fill="#F4F4F4"/>
<path d="M282.538 17.2114C285.471 17.2114 288.159 17.7131 290.603 18.7165C293.048 19.7198 295.157 21.1091 296.932 22.8842C298.707 24.6594 300.096 26.7819 301.1 29.2517C302.103 31.7214 302.605 34.4228 302.605 37.3557C302.605 40.2886 302.103 42.9899 301.1 45.4597C300.096 47.9295 298.707 50.052 296.932 51.8271C295.157 53.6023 293.048 54.9915 290.603 55.9949C288.159 56.9982 285.471 57.4999 282.538 57.4999C279.605 57.4999 276.917 56.9982 274.472 55.9949C272.028 54.9915 269.919 53.6023 268.144 51.8271C266.368 50.052 264.979 47.9295 263.976 45.4597C262.972 42.9899 262.471 40.2886 262.471 37.3557C262.471 34.4228 262.972 31.7214 263.976 29.2517C264.979 26.7819 266.368 24.6594 268.144 22.8842C269.919 21.1091 272.028 19.7198 274.472 18.7165C276.917 17.7131 279.605 17.2114 282.538 17.2114ZM282.538 48.161C283.825 48.161 285.072 47.9168 286.281 47.4278C287.491 46.9388 288.558 46.2315 289.484 45.3053C290.41 44.3792 291.143 43.2474 291.684 41.9094C292.224 40.5713 292.494 39.0537 292.494 37.3557C292.494 35.6577 292.224 34.14 291.684 32.802C291.143 31.464 290.41 30.3322 289.484 29.406C288.558 28.4799 287.491 27.7726 286.281 27.2836C285.072 26.7945 283.825 26.5503 282.538 26.5503C281.2 26.5503 279.94 26.7945 278.756 27.2836C277.573 27.7726 276.518 28.4799 275.591 29.406C274.665 30.3322 273.932 31.464 273.392 32.802C272.852 34.14 272.581 35.6577 272.581 37.3557C272.581 39.0537 272.852 40.5713 273.392 41.9094C273.932 43.2474 274.665 44.3792 275.591 45.3053C276.518 46.2315 277.573 46.9388 278.756 47.4278C279.94 47.9168 281.2 48.161 282.538 48.161Z" fill="#F4F4F4"/>
<path d="M307.651 18.4463H317.144V23.6946H317.762C318.225 22.7684 318.842 21.9194 319.614 21.1476C320.386 20.3758 321.248 19.7071 322.2 19.1409C323.152 18.5747 324.181 18.1375 325.287 17.8288C326.393 17.5201 327.487 17.3657 328.567 17.3657C329.905 17.3657 331.05 17.4941 332.002 17.7516C332.954 18.0091 333.764 18.3431 334.433 18.755L331.732 27.9395C331.114 27.6308 330.433 27.3866 329.686 27.2063C328.94 27.026 328.027 26.9362 326.946 26.9362C325.557 26.9362 324.297 27.2063 323.165 27.7466C322.033 28.2868 321.068 29.046 320.27 30.0234C319.473 31.0008 318.856 32.1459 318.418 33.458C317.981 34.7701 317.762 36.1979 317.762 37.7415V56.265H307.651V18.4463Z" fill="#F4F4F4"/>
<path d="M344.033 12.9664C343.158 12.9664 342.322 12.7994 341.524 12.4647C340.727 12.1301 340.032 11.667 339.44 11.0755C338.849 10.484 338.386 9.80199 338.051 9.03018C337.717 8.25837 337.549 7.40937 337.549 6.4832C337.549 5.55703 337.717 4.70805 338.051 3.93624C338.386 3.16443 338.849 2.48244 339.44 1.89094C340.032 1.29944 340.727 0.836348 341.524 0.501675C342.322 0.167002 343.158 0 344.033 0C345.834 0 347.377 0.630097 348.663 1.89094C349.95 3.15179 350.593 4.68209 350.593 6.4832C350.593 8.28431 349.95 9.81463 348.663 11.0755C347.377 12.3363 345.834 12.9664 344.033 12.9664ZM339.016 56.265V18.4463H349.126V56.265H339.016Z" fill="#F4F4F4"/>
<path d="M355.871 47.9295L375.166 27.0906H356.488V18.4463H387.592V26.7819L368.297 47.6207H387.901V56.265H355.871V47.9295Z" fill="#F4F4F4"/>
<path d="M445.768 23.3859H446.385C447.569 21.4823 449.164 19.9773 451.171 18.8708C453.177 17.7643 455.467 17.2114 458.04 17.2114C460.407 17.2114 462.491 17.5973 464.291 18.3691C466.093 19.1409 467.572 20.2341 468.729 21.6493C469.887 23.0645 470.762 24.7625 471.353 26.7433C471.946 28.724 472.241 30.9237 472.241 33.3423V56.265H462.13V34.5771C462.13 31.8499 461.526 29.8305 460.317 28.5184C459.108 27.2064 457.345 26.5503 455.03 26.5503C453.64 26.5503 452.419 26.8464 451.364 27.4379C450.309 28.0294 449.409 28.8272 448.662 29.8305C447.916 30.8339 447.35 32.0175 446.964 33.3809C446.578 34.7442 446.385 36.198 446.385 37.7416V56.265H436.275V18.4463H445.768V23.3859Z" fill="#F4F4F4"/>
<path d="M211.348 118.798V63.5359H228.25C236.689 63.5359 243.468 66.0829 248.588 71.1768C253.707 76.2708 256.267 82.9343 256.267 91.1667C256.267 99.451 253.707 106.127 248.588 111.195C243.468 116.263 236.689 118.798 228.25 118.798H211.348ZM218.448 70.3278V112.006H228.25C234.682 112.006 239.75 110.166 243.455 106.487C247.16 102.808 249.012 97.7011 249.012 91.1667C249.012 84.6835 247.16 79.5895 243.455 75.8849C239.75 72.1802 234.682 70.3278 228.25 70.3278H218.448Z" fill="#F4F4F4"/>
<path d="M268.336 118.798H261.236V80.979H268.028V87.1535H268.336C269.057 85.1467 270.536 83.4361 272.774 82.0209C275.013 80.6057 277.212 79.8984 279.373 79.8984C281.432 79.8984 283.181 80.2072 284.622 80.8246L282.461 87.6937C281.586 87.3338 280.197 87.1535 278.293 87.1535C275.617 87.1535 273.289 88.234 271.308 90.3951C269.327 92.5561 268.336 95.0771 268.336 97.9588V118.798Z" fill="#F4F4F4"/>
<path d="M284.111 99.8882C284.111 94.0736 285.938 89.2631 289.591 85.4553C293.295 81.6475 297.952 79.7439 303.56 79.7439C309.169 79.7439 313.8 81.6475 317.453 85.4553C321.158 89.2631 323.01 94.0736 323.01 99.8882C323.01 105.754 321.158 110.565 317.453 114.321C313.8 118.129 309.169 120.032 303.56 120.032C297.952 120.032 293.295 118.129 289.591 114.321C285.938 110.513 284.111 105.703 284.111 99.8882ZM291.211 99.8882C291.211 103.953 292.395 107.246 294.762 109.767C297.129 112.288 300.062 113.549 303.56 113.549C307.06 113.549 309.992 112.288 312.359 109.767C314.726 107.246 315.909 103.953 315.909 99.8882C315.909 95.8748 314.726 92.6072 312.359 90.0862C309.941 87.5133 307.008 86.2271 303.56 86.2271C300.113 86.2271 297.18 87.5133 294.762 90.0862C292.395 92.6072 291.211 95.8748 291.211 99.8882Z" fill="#F4F4F4"/>
<path d="M337.241 67.9352C337.241 69.3245 336.752 70.5082 335.774 71.4856C334.797 72.463 333.613 72.952 332.224 72.952C330.835 72.952 329.652 72.463 328.673 71.4856C327.696 70.5082 327.207 69.3245 327.207 67.9352C327.207 66.546 327.696 65.3623 328.673 64.3849C329.652 63.4075 330.835 62.9185 332.224 62.9185C333.613 62.9185 334.797 63.4075 335.774 64.3849C336.752 65.3623 337.241 66.546 337.241 67.9352ZM335.774 80.9788V118.798H328.673V80.9788H335.774Z" fill="#F4F4F4"/>
<path d="M360.964 113.549C364.463 113.549 367.319 112.288 369.531 109.767C371.847 107.246 373.005 103.953 373.005 99.8882C373.005 95.926 371.847 92.6591 369.531 90.0862C367.268 87.5133 364.412 86.2271 360.964 86.2271C357.568 86.2271 354.713 87.5133 352.397 90.0862C350.082 92.6591 348.924 95.926 348.924 99.8882C348.924 103.902 350.082 107.169 352.397 109.69C354.713 112.263 357.568 113.549 360.964 113.549ZM359.807 120.032C354.867 120.032 350.622 118.077 347.072 114.167C343.573 110.204 341.823 105.445 341.823 99.8882C341.823 94.3311 343.573 89.5718 347.072 85.6097C350.622 81.6994 354.867 79.7439 359.807 79.7439C362.585 79.7439 365.12 80.3354 367.409 81.5191C369.699 82.7027 371.461 84.2716 372.696 86.2271H373.005L372.696 80.9788V63.5359H379.797V118.798H373.005V113.549H372.696C371.461 115.505 369.699 117.074 367.409 118.257C365.12 119.441 362.585 120.032 359.807 120.032Z" fill="#F4F4F4"/>
<path d="M409.213 19.9912C407.326 20.2094 405.51 20.5568 403.849 21.2387C401.405 22.2421 399.282 23.6427 397.507 25.4178C395.732 27.193 394.352 29.3102 393.349 31.78C392.345 34.2498 391.852 36.9564 391.852 39.8893C391.852 42.8222 392.345 45.5075 393.349 47.9773C394.352 50.4471 395.732 52.5856 397.507 54.3607C399.282 56.1359 401.405 57.5158 403.849 58.5192C406.292 59.5226 408.983 60.0162 411.916 60.0162C414.849 60.0162 417.54 59.5226 419.983 58.5192C422.427 57.5158 424.529 56.1359 426.304 54.3607C428.079 52.5856 429.459 50.4471 430.463 47.9773C431.466 45.5075 431.98 42.8222 431.98 39.8893C431.98 37.0283 431.48 34.3875 430.525 31.9676C429.972 33.0321 429.283 34.0388 428.383 34.9617C426.535 36.8573 424.312 37.9764 421.751 38.3716C421.804 38.87 421.876 39.355 421.876 39.8893C421.876 41.5873 421.605 43.1049 421.065 44.443C420.524 45.7803 419.786 46.9055 418.86 47.8316C417.934 48.7578 416.868 49.4637 415.659 49.9528C414.449 50.4411 413.202 50.6807 411.916 50.6807C410.578 50.6807 409.315 50.4418 408.131 49.9528C406.948 49.4637 405.897 48.7578 404.971 47.8316C404.045 46.9055 403.308 45.7803 402.767 44.443C402.227 43.1049 401.956 41.5873 401.956 39.8893C401.956 38.1913 402.227 36.6736 402.767 35.3356C403.308 33.9976 404.045 32.8518 404.971 31.9257C405.868 31.0288 406.89 30.3541 408.028 29.8671C407.695 28.7506 407.466 27.6035 407.466 26.3533C407.466 23.9581 408.073 21.8449 409.213 19.9912Z" fill="#F4F4F4"/>
<path d="M418.991 40.0038C418.991 41.946 418.315 43.6107 416.962 44.998C415.609 46.3853 413.927 47.0785 411.916 47.0785C409.974 47.0785 408.309 46.3853 406.922 44.998C405.535 43.6107 404.841 41.946 404.841 40.0038C404.841 37.9918 405.535 36.3098 406.922 34.9578C408.309 33.6051 409.974 32.9285 411.916 32.9285C413.927 32.9285 415.609 33.6051 416.962 34.9578C418.315 36.3098 418.991 37.9918 418.991 40.0038Z" fill="#EB00FF"/>
<path d="M211.408 140.484V145.011H209.971V133.832H213.781C214.749 133.832 215.571 134.155 216.247 134.8C216.935 135.446 217.278 136.231 217.278 137.157C217.278 138.105 216.935 138.896 216.247 139.531C215.581 140.166 214.759 140.484 213.781 140.484H211.408ZM211.408 135.206V139.11H213.812C214.384 139.11 214.858 138.917 215.233 138.531C215.618 138.146 215.81 137.688 215.81 137.157C215.81 136.637 215.618 136.185 215.233 135.799C214.858 135.404 214.384 135.206 213.812 135.206H211.408Z" fill="#F4F4F4"/>
<path d="M217.543 141.185C217.543 140.01 217.913 139.036 218.652 138.266C219.401 137.496 220.343 137.111 221.478 137.111C222.613 137.111 223.55 137.496 224.288 138.266C225.038 139.036 225.413 140.01 225.413 141.185C225.413 142.372 225.038 143.346 224.288 144.106C223.55 144.876 222.613 145.261 221.478 145.261C220.343 145.261 219.401 144.876 218.652 144.106C217.913 143.335 217.543 142.362 217.543 141.185ZM218.98 141.185C218.98 142.008 219.219 142.675 219.698 143.184C220.177 143.695 220.77 143.949 221.478 143.949C222.186 143.949 222.779 143.695 223.258 143.184C223.737 142.675 223.976 142.008 223.976 141.185C223.976 140.374 223.737 139.713 223.258 139.203C222.768 138.682 222.176 138.422 221.478 138.422C220.78 138.422 220.188 138.682 219.698 139.203C219.219 139.713 218.98 140.374 218.98 141.185Z" fill="#F4F4F4"/>
<path d="M237.404 137.36L234.936 145.011H233.469L231.564 139.14L229.675 145.011H228.223L225.756 137.36H227.255L228.957 143.138H228.972L230.862 137.36H232.345L234.234 143.138H234.25L235.936 137.36H237.404Z" fill="#F4F4F4"/>
<path d="M241.619 145.261C240.495 145.261 239.569 144.876 238.84 144.106C238.111 143.335 237.747 142.362 237.747 141.185C237.747 140.02 238.101 139.05 238.809 138.274C239.517 137.499 240.422 137.111 241.525 137.111C242.66 137.111 243.563 137.477 244.234 138.211C244.905 138.945 245.241 139.973 245.241 141.295L245.225 141.451H239.215C239.235 142.201 239.485 142.804 239.964 143.262C240.443 143.72 241.015 143.949 241.681 143.949C242.597 143.949 243.316 143.492 243.836 142.575L245.116 143.2C244.773 143.846 244.297 144.35 243.688 144.715C243.079 145.078 242.389 145.261 241.619 145.261ZM239.324 140.265H243.711C243.669 139.734 243.454 139.294 243.063 138.945C242.673 138.597 242.149 138.422 241.494 138.422C240.952 138.422 240.487 138.589 240.097 138.922C239.706 139.255 239.449 139.702 239.324 140.265Z" fill="#F4F4F4"/>
<path d="M247.989 145.011H246.553V137.36H247.927V138.61H247.989C248.135 138.203 248.434 137.857 248.887 137.571C249.34 137.285 249.785 137.142 250.222 137.142C250.638 137.142 250.992 137.205 251.284 137.329L250.847 138.719C250.67 138.646 250.389 138.61 250.003 138.61C249.462 138.61 248.991 138.828 248.59 139.265C248.19 139.702 247.989 140.213 247.989 140.796V145.011Z" fill="#F4F4F4"/>
<path d="M255.187 145.261C254.063 145.261 253.137 144.876 252.408 144.106C251.68 143.335 251.315 142.362 251.315 141.185C251.315 140.02 251.669 139.05 252.377 138.274C253.084 137.499 253.99 137.111 255.093 137.111C256.228 137.111 257.131 137.477 257.802 138.211C258.473 138.945 258.81 139.973 258.81 141.295L258.794 141.451H252.783C252.803 142.201 253.054 142.804 253.532 143.262C254.011 143.72 254.583 143.949 255.249 143.949C256.165 143.949 256.883 143.492 257.404 142.575L258.684 143.2C258.341 143.846 257.865 144.35 257.256 144.715C256.647 145.078 255.957 145.261 255.187 145.261ZM252.892 140.265H257.279C257.237 139.734 257.022 139.294 256.631 138.945C256.241 138.597 255.718 138.422 255.062 138.422C254.521 138.422 254.055 138.589 253.665 138.922C253.274 139.255 253.017 139.702 252.892 140.265Z" fill="#F4F4F4"/>
<path d="M263.634 143.949C264.341 143.949 264.919 143.695 265.366 143.184C265.835 142.675 266.069 142.008 266.069 141.186C266.069 140.384 265.835 139.724 265.366 139.203C264.909 138.682 264.331 138.422 263.634 138.422C262.947 138.422 262.369 138.682 261.901 139.203C261.432 139.724 261.198 140.384 261.198 141.186C261.198 141.998 261.432 142.659 261.901 143.169C262.369 143.689 262.947 143.949 263.634 143.949ZM263.4 145.261C262.4 145.261 261.541 144.866 260.823 144.074C260.115 143.273 259.761 142.31 259.761 141.186C259.761 140.062 260.115 139.099 260.823 138.297C261.541 137.506 262.4 137.111 263.4 137.111C263.961 137.111 264.474 137.231 264.937 137.47C265.4 137.709 265.757 138.027 266.006 138.422H266.069L266.006 137.36V133.832H267.443V145.011H266.069V143.949H266.006C265.757 144.345 265.4 144.663 264.937 144.902C264.474 145.141 263.961 145.261 263.4 145.261Z" fill="#F4F4F4"/>
<path d="M276.671 145.261C276.109 145.261 275.596 145.141 275.132 144.902C274.669 144.663 274.313 144.345 274.063 143.949H274.001V145.011H272.627V133.832H274.063V137.36L274.001 138.422H274.063C274.313 138.027 274.669 137.709 275.132 137.47C275.596 137.231 276.109 137.111 276.671 137.111C277.68 137.111 278.534 137.506 279.231 138.297C279.95 139.099 280.308 140.062 280.308 141.186C280.308 142.321 279.95 143.283 279.231 144.074C278.534 144.866 277.68 145.261 276.671 145.261ZM276.437 143.949C277.123 143.949 277.701 143.689 278.169 143.169C278.638 142.659 278.872 141.998 278.872 141.186C278.872 140.384 278.638 139.724 278.169 139.203C277.701 138.682 277.123 138.422 276.437 138.422C275.739 138.422 275.156 138.682 274.688 139.203C274.23 139.724 274.001 140.384 274.001 141.186C274.001 141.998 274.23 142.664 274.688 143.184C275.156 143.695 275.739 143.949 276.437 143.949Z" fill="#F4F4F4"/>
<path d="M288.146 137.36L283.353 148.383H281.87L283.65 144.527L280.496 137.36H282.057L284.337 142.856H284.368L286.585 137.36H288.146Z" fill="#F4F4F4"/>
<path d="M218.546 156.219L215.128 165.654H222.08L218.662 156.219H218.546ZM212.177 173.833H209.197L217.084 152.917H220.122L228.01 173.833H225.03L223.015 168.166H214.222L212.177 173.833Z" fill="#F4F4F4"/>
<path d="M229.996 159.519H232.567V161.505H232.684C233.093 160.804 233.721 160.22 234.568 159.753C235.415 159.285 236.297 159.052 237.211 159.052C238.965 159.052 240.313 159.553 241.257 160.556C242.202 161.559 242.674 162.986 242.674 164.835V173.833H239.987V165.011C239.928 162.674 238.75 161.505 236.452 161.505C235.381 161.505 234.485 161.938 233.765 162.805C233.044 163.672 232.684 164.709 232.684 165.917V173.833H229.996V159.519Z" fill="#F4F4F4"/>
<path d="M252.256 171.846C253.58 171.846 254.661 171.369 255.498 170.415C256.374 169.461 256.813 168.214 256.813 166.676C256.813 165.176 256.374 163.94 255.498 162.966C254.641 161.992 253.56 161.505 252.256 161.505C250.97 161.505 249.89 161.992 249.013 162.966C248.137 163.94 247.699 165.176 247.699 166.676C247.699 168.195 248.137 169.432 249.013 170.386C249.89 171.359 250.97 171.846 252.256 171.846ZM251.817 174.3C249.948 174.3 248.341 173.56 246.997 172.08C245.673 170.581 245.011 168.779 245.011 166.676C245.011 164.573 245.673 162.772 246.997 161.272C248.341 159.791 249.948 159.052 251.817 159.052C252.869 159.052 253.828 159.276 254.695 159.724C255.561 160.171 256.228 160.766 256.696 161.505H256.813L256.696 159.519V152.917H259.384V173.833H256.813V171.846H256.696C256.228 172.586 255.561 173.18 254.695 173.628C253.828 174.077 252.869 174.3 251.817 174.3Z" fill="#F4F4F4"/>
<path d="M265.342 173.833H262.655V159.519H265.225V161.856H265.342C265.615 161.097 266.175 160.449 267.022 159.913C267.869 159.378 268.702 159.11 269.519 159.11C270.299 159.11 270.961 159.227 271.506 159.461L270.688 162.06C270.357 161.924 269.832 161.856 269.111 161.856C268.098 161.856 267.217 162.265 266.467 163.083C265.717 163.901 265.342 164.855 265.342 165.946V173.833Z" fill="#F4F4F4"/>
<path d="M271.565 166.676C271.565 164.475 272.256 162.654 273.639 161.213C275.041 159.772 276.803 159.052 278.926 159.052C281.049 159.052 282.801 159.772 284.184 161.213C285.587 162.654 286.287 164.475 286.287 166.676C286.287 168.896 285.587 170.717 284.184 172.138C282.801 173.58 281.049 174.3 278.926 174.3C276.803 174.3 275.041 173.58 273.639 172.138C272.256 170.697 271.565 168.877 271.565 166.676ZM274.252 166.676C274.252 168.214 274.7 169.461 275.596 170.415C276.492 171.369 277.602 171.846 278.926 171.846C280.25 171.846 281.36 171.369 282.256 170.415C283.152 169.461 283.6 168.214 283.6 166.676C283.6 165.157 283.152 163.921 282.256 162.966C281.341 161.992 280.231 161.505 278.926 161.505C277.621 161.505 276.511 161.992 275.596 162.966C274.7 163.921 274.252 165.157 274.252 166.676Z" fill="#F4F4F4"/>
<path d="M291.925 154.583C291.925 155.108 291.74 155.556 291.37 155.926C291 156.296 290.552 156.481 290.026 156.481C289.501 156.481 289.053 156.296 288.682 155.926C288.312 155.556 288.127 155.108 288.127 154.583C288.127 154.057 288.312 153.608 288.682 153.238C289.053 152.869 289.501 152.684 290.026 152.684C290.552 152.684 291 152.869 291.37 153.238C291.74 153.608 291.925 154.057 291.925 154.583ZM291.37 159.519V173.833H288.682V159.519H291.37Z" fill="#F4F4F4"/>
<path d="M301.156 171.846C302.48 171.846 303.561 171.369 304.399 170.415C305.275 169.461 305.713 168.214 305.713 166.676C305.713 165.176 305.275 163.94 304.399 162.966C303.542 161.992 302.461 161.505 301.156 161.505C299.871 161.505 298.79 161.992 297.913 162.966C297.037 163.94 296.599 165.176 296.599 166.676C296.599 168.195 297.037 169.432 297.913 170.386C298.79 171.359 299.871 171.846 301.156 171.846ZM300.718 174.3C298.848 174.3 297.241 173.56 295.898 172.08C294.573 170.581 293.911 168.779 293.911 166.676C293.911 164.573 294.573 162.772 295.898 161.272C297.241 159.791 298.848 159.052 300.718 159.052C301.769 159.052 302.729 159.276 303.595 159.724C304.462 160.171 305.129 160.766 305.596 161.505H305.713L305.596 159.519V152.917H308.284V173.833H305.713V171.846H305.596C305.129 172.586 304.462 173.18 303.595 173.628C302.729 174.077 301.769 174.3 300.718 174.3Z" fill="#F4F4F4"/>
<path d="M85.6643 2.96216C82.2391 2.96216 78.8717 3.22032 75.5589 3.62751L68.7437 21.4031C68.5534 21.8995 68.5514 22.4491 68.739 22.9467L81.0481 55.6083L102.049 41.7822C102.9 41.2227 103.247 40.1481 102.886 39.1967L99.678 30.7407C125.82 37.0536 145.255 60.5419 145.255 88.6265C145.255 101.263 141.213 112.898 134.505 122.539L108.207 53.2163C107.701 51.883 106.069 51.3906 104.91 52.221L68.5314 78.2929L47.7179 23.4012L51.7519 9.90647L44.0584 13.7535C17.7849 28.3847 0 56.42 0 88.6265C0 89.6511 0.103797 90.6478 0.145049 91.6618L11.9764 99.688L26.364 94.4064C26.1803 92.5015 26.0526 90.5806 26.0526 88.6265C26.0526 77.7579 29.0108 67.6146 34.0994 58.8519L66.8468 145.161C53.0886 140.584 41.5826 131.129 34.3276 118.858L19.3159 124.369L16.5919 139.11C32.1632 160.413 57.2537 174.291 85.6643 174.291C92.0264 174.291 98.2022 173.548 104.169 172.232L116.166 169.009L100.759 163.25L77.6588 102.328L91.55 91.6831C92.7018 90.8002 94.3785 91.2732 94.8988 92.6279L117.162 150.532C117.412 151.181 117.957 151.671 118.628 151.851L137.104 156.805C139.909 154.687 142.61 152.467 145.005 150.234C161.201 134.674 171.328 112.867 171.329 88.6265C171.328 42.5101 134.856 4.99681 89.1987 3.1285L89.1361 2.96216L88.7409 3.10787C87.711 3.07061 86.7036 2.96216 85.6643 2.96216Z" fill="#F4F4F4"/>
</svg>
